REM DIRINDEX 1\2,1\3
REM DIRNAME folder01,folder02,folder03
TITLE ""
FILE "3141-3160.mp3" MP3
  TRACK 01 AUDIO
    TITLE "0:"
    INDEX 01 00:00:00
  TRACK 02 AUDIO
    TITLE "2:cjc039_5281"
    INDEX 01 00:00:27
  TRACK 03 AUDIO
    TITLE "0:"
    INDEX 01 00:01:54
  TRACK 04 AUDIO
    TITLE "3:cjc039_5282"
    INDEX 01 00:02:28
  TRACK 05 AUDIO
    TITLE "0:"
    INDEX 01 00:05:10
  TRACK 06 AUDIO
    TITLE "2:cjc039_5283"
    INDEX 01 00:06:61
  TRACK 07 AUDIO
    TITLE "0:"
    INDEX 01 00:08:09
  TRACK 08 AUDIO
    TITLE "3:cjc039_5284"
    INDEX 01 00:08:58
  TRACK 09 AUDIO
    TITLE "0:"
    INDEX 01 00:13:51
  TRACK 10 AUDIO
    TITLE "2:cjc039_5285"
    INDEX 01 00:15:25
  TRACK 11 AUDIO
    TITLE "0:"
    INDEX 01 00:16:44
  TRACK 12 AUDIO
    TITLE "3:cjc039_5286"
    INDEX 01 00:17:25
  TRACK 13 AUDIO
    TITLE "0:"
    INDEX 01 00:21:17
  TRACK 14 AUDIO
    TITLE "2:cjc039_5287"
    INDEX 01 00:22:66
  TRACK 15 AUDIO
    TITLE "0:"
    INDEX 01 00:24:25
  TRACK 16 AUDIO
    TITLE "3:cjc039_5288"
    INDEX 01 00:25:01
  TRACK 17 AUDIO
    TITLE "0:"
    INDEX 01 00:29:27
  TRACK 18 AUDIO
    TITLE "2:cjc039_5289"
    INDEX 01 00:31:04
  TRACK 19 AUDIO
    TITLE "0:"
    INDEX 01 00:32:11
  TRACK 20 AUDIO
    TITLE "3:cjc039_5290"
    INDEX 01 00:32:62
  TRACK 21 AUDIO
    TITLE "0:"
    INDEX 01 00:35:64
  TRACK 22 AUDIO
    TITLE "2:cjc039_5291"
    INDEX 01 00:37:44
  TRACK 23 AUDIO
    TITLE "0:"
    INDEX 01 00:38:67
  TRACK 24 AUDIO
    TITLE "3:cjc039_5292"
    INDEX 01 00:39:43
  TRACK 25 AUDIO
    TITLE "0:"
    INDEX 01 00:43:62
  TRACK 26 AUDIO
    TITLE "2:cjc039_5293"
    INDEX 01 00:45:39
  TRACK 27 AUDIO
    TITLE "0:"
    INDEX 01 00:47:13
  TRACK 28 AUDIO
    TITLE "3:cjc039_5294"
    INDEX 01 00:47:58
  TRACK 29 AUDIO
    TITLE "0:"
    INDEX 01 00:52:14
  TRACK 30 AUDIO
    TITLE "2:cjc039_5295"
    INDEX 01 00:53:60
  TRACK 31 AUDIO
    TITLE "0:"
    INDEX 01 00:55:08
  TRACK 32 AUDIO
    TITLE "3:cjc039_5296"
    INDEX 01 00:55:61
  TRACK 33 AUDIO
    TITLE "0:"
    INDEX 01 00:59:20
  TRACK 34 AUDIO
    TITLE "2:cjc039_5297"
    INDEX 01 01:00:72
  TRACK 35 AUDIO
    TITLE "0:"
    INDEX 01 01:01:70
  TRACK 36 AUDIO
    TITLE "3:cjc039_5298"
    INDEX 01 01:02:42
  TRACK 37 AUDIO
    TITLE "0:"
    INDEX 01 01:06:14
  TRACK 38 AUDIO
    TITLE "2:cjc039_5299"
    INDEX 01 01:07:68
  TRACK 39 AUDIO
    TITLE "0:"
    INDEX 01 01:09:46
  TRACK 40 AUDIO
    TITLE "3:cjc039_5300"
    INDEX 01 01:10:20
  TRACK 41 AUDIO
    TITLE "0:"
    INDEX 01 01:15:60
  TRACK 42 AUDIO
    TITLE "2:cjc039_5301"
    INDEX 01 01:17:32
  TRACK 43 AUDIO
    TITLE "0:"
    INDEX 01 01:18:43
  TRACK 44 AUDIO
    TITLE "3:cjc039_5302"
    INDEX 01 01:19:17
  TRACK 45 AUDIO
    TITLE "0:"
    INDEX 01 01:23:01
  TRACK 46 AUDIO
    TITLE "2:cjc039_5303"
    INDEX 01 01:24:47
  TRACK 47 AUDIO
    TITLE "0:"
    INDEX 01 01:26:15
  TRACK 48 AUDIO
    TITLE "3:cjc039_5304"
    INDEX 01 01:26:66
  TRACK 49 AUDIO
    TITLE "0:"
    INDEX 01 01:31:47
  TRACK 50 AUDIO
    TITLE "2:cjc039_5305"
    INDEX 01 01:33:25
  TRACK 51 AUDIO
    TITLE "0:"
    INDEX 01 01:34:14
  TRACK 52 AUDIO
    TITLE "3:cjc039_5306"
    INDEX 01 01:34:73
  TRACK 53 AUDIO
    TITLE "0:"
    INDEX 01 01:38:14
  TRACK 54 AUDIO
    TITLE "2:cjc039_5307"
    INDEX 01 01:39:70
  TRACK 55 AUDIO
    TITLE "0:"
    INDEX 01 01:41:48
  TRACK 56 AUDIO
    TITLE "3:cjc039_5308"
    INDEX 01 01:42:26
  TRACK 57 AUDIO
    TITLE "0:"
    INDEX 01 01:46:57
  TRACK 58 AUDIO
    TITLE "2:cjc039_5309"
    INDEX 01 01:48:32
  TRACK 59 AUDIO
    TITLE "0:"
    INDEX 01 01:49:57
  TRACK 60 AUDIO
    TITLE "3:cjc039_5310"
    INDEX 01 01:50:35
  TRACK 61 AUDIO
    TITLE "0:"
    INDEX 01 01:54:50
  TRACK 62 AUDIO
    TITLE "2:cjc039_5311"
    INDEX 01 01:56:26
  TRACK 63 AUDIO
    TITLE "0:"
    INDEX 01 01:57:58
  TRACK 64 AUDIO
    TITLE "3:cjc039_5312"
    INDEX 01 01:58:30
  TRACK 65 AUDIO
    TITLE "0:"
    INDEX 01 02:03:14
  TRACK 66 AUDIO
    TITLE "2:cjc039_5313"
    INDEX 01 02:04:62
  TRACK 67 AUDIO
    TITLE "0:"
    INDEX 01 02:05:68
  TRACK 68 AUDIO
    TITLE "3:cjc039_5314"
    INDEX 01 02:06:42
  TRACK 69 AUDIO
    TITLE "0:"
    INDEX 01 02:09:71
  TRACK 70 AUDIO
    TITLE "2:cjc039_5315"
    INDEX 01 02:11:53
  TRACK 71 AUDIO
    TITLE "0:"
    INDEX 01 02:12:66
  TRACK 72 AUDIO
    TITLE "3:cjc039_5316"
    INDEX 01 02:13:38
  TRACK 73 AUDIO
    TITLE "0:"
    INDEX 01 02:16:50
  TRACK 74 AUDIO
    TITLE "2:cjc039_5317"
    INDEX 01 02:18:29
  TRACK 75 AUDIO
    TITLE "0:"
    INDEX 01 02:19:46
  TRACK 76 AUDIO
    TITLE "3:cjc039_5318"
    INDEX 01 02:20:24
  TRACK 77 AUDIO
    TITLE "0:"
    INDEX 01 02:24:30
  TRACK 78 AUDIO
    TITLE "2:cjc039_5319"
    INDEX 01 02:26:05
  TRACK 79 AUDIO
    TITLE "0:"
    INDEX 01 02:27:44
  TRACK 80 AUDIO
    TITLE "3:cjc039_5320"
    INDEX 01 02:28:24
  TRACK 81 AUDIO
    TITLE "0:"
    INDEX 01 02:32:65
